<?xml version="1.0" encoding="UTF-8"?><svg xmlns="http://www.w3.org/2000/svg" xmlns:xlink="http://www.w3.org/1999/xlink" version="1.1" id="Layer_1" x="0px" y="0px" viewBox="0 0 24 24" xml:space="preserve"><path fill="#303C42" d="M21 1H3c-1.103 0-2 .897-2 2v18c0 1.103.897 2 2 2h18c1.103 0 2-.897 2-2V3c0-1.103-.897-2-2-2z"/><path fill="#455A64" d="M22 21c0 .551-.449 1-1 1H3c-.551 0-1-.449-1-1V3c0-.551.449-1 1-1h18c.551 0 1 .449 1 1v18z"/><path fill="#303C42" d="M19.5 11H13V9.5a.5.5 0 0 0-.5-.5h-2a.5.5 0 0 0-.5.5v4a.5.5 0 0 0 .5.5H17v3H4.5a.5.5 0 0 0-.5.5v2a.5.5 0 0 0 .5.5h15a.5.5 0 0 0 .5-.5v-8a.5.5 0 0 0-.5-.5z"/><path fill="#AED581" d="M19 19H5v-1h12.5a.5.5 0 0 0 .5-.5v-4a.5.5 0 0 0-.5-.5H11v-3h1v1.5a.5.5 0 0 0 .5.5H19v7z"/><path fill="#303C42" d="M11.146 7.854a.498.498 0 0 0 .708 0l1.5-1.5a.5.5 0 0 0 0-.708l-1.5-1.5a.5.5 0 0 0-.708 0l-1.5 1.5a.5.5 0 0 0 0 .708l1.5 1.5z"/><path transform="matrix(0.7071068 -0.7071068 0.7071068 0.7071068 -0.8743687 9.8890877)" fill="#E53935" d="M10.94 5.44h1.12v1.12h-1.12z"/><linearGradient id="SVGID_1_" gradientUnits="userSpaceOnUse" x1="-0.6523309" y1="6.100121" x2="24.6523304" y2="17.8998795"><stop offset="0" stop-color="#FFF" stop-opacity="0.2"/><stop offset="1" stop-color="#FFF" stop-opacity="0"/></linearGradient><path fill="url(#SVGID_1_)" d="M21 1H3c-1.103 0-2 .897-2 2v18c0 1.103.897 2 2 2h18c1.103 0 2-.897 2-2V3c0-1.103-.897-2-2-2z"/><metadata><rdf:RDF xmlns:rdf="http://www.w3.org/1999/02/22-rdf-syntax-ns#" xmlns:rdfs="http://www.w3.org/2000/01/rdf-schema#" xmlns:dc="http://purl.org/dc/elements/1.1/"><rdf:Description about="https://iconscout.com/legal#licenses" dc:title="video,game,play,snake" dc:description="video,game,play,snake" dc:publisher="Iconscout" dc:date="2017-08-16" dc:format="image/svg+xml" dc:language="en"><dc:creator><rdf:Bag><rdf:li>Those Icons</rdf:li></rdf:Bag></dc:creator></rdf:Description></rdf:RDF></metadata></svg>